<?xml version="1.0" encoding="utf-8"?>
<!-- Svg Vector Icons : http://www.onlinewebfonts.com/icon -->
<!DOCTYPE svg PUBLIC "-//W3C//DTD SVG 1.1//EN" "http://www.w3.org/Graphics/SVG/1.1/DTD/svg11.dtd">
<svg version="1.1" xmlns="http://www.w3.org/2000/svg" xmlns:xlink="http://www.w3.org/1999/xlink" x="0px" y="0px" viewBox="0 0 256 256" enable-background="new 0 0 256 256" xml:space="preserve">
<metadata> Svg Vector Icons : http://www.onlinewebfonts.com/icon </metadata>
<g><g><g><path fill="#000000" d="M35.6,98c-14,16-25.5,29.4-25.6,29.8c-0.2,0.7,50.2,58.9,51.3,59.2c0.2,0.1,2.7-1.9,5.5-4.6l5.1-4.7l-18.8-21.4c-10.4-11.8-18.7-21.5-18.6-21.6c0.1-0.1,4.2,0.3,9.2,1c12.7,1.7,31.5,3.7,44.8,4.6c15.2,1,53.8,0.4,64.8-1c38-4.8,65.4-15.2,87-33.1l5.7-4.7l-4.7-5c-2.6-2.7-4.9-5-5.1-5.1c-0.2-0.1-2.4,1.5-4.9,3.6c-19.4,16.2-45.1,25.9-80.3,30.1c-11.4,1.4-45.2,1.9-60.3,1c-18.8-1.2-54-5.1-55.1-6.1c-0.1-0.2,7.9-9.6,17.9-21l18.2-20.8l-5.1-4.6C64,71,61.5,69,61.3,68.9C61.1,68.9,49.6,82,35.6,98z"/></g></g></g>
</svg>